<svg xmlns="http://www.w3.org/2000/svg" width="640" height="640">
<path style="fill:#ffeb00; stroke:none;" d="M0 0L0 640L280 640C274.691 637.767 267.726 638.101 262 637C251.666 635.013 241.335 631.526 231 630C237.751 628.144 245.289 631.258 252 632.6C266.163 635.434 281.63 639.157 296 639.957C340.33 642.425 384.864 635.71 427 622C422.018 627.031 414.614 628.266 408 630.14C393.41 634.276 377.231 638.686 362 639C368.919 641.903 379.52 640 387 640L444 640L640 640L640 0L0 0z"/>
<path style="fill:#1f1e04; stroke:none;" d="M363 84.4537C358.165 85.0963 353.174 86.5683 349 89.1188C345.535 91.236 342.424 93.8564 339.9 97.0394C337.506 100.058 335.426 103.374 334.093 107C326.645 127.272 343.928 143.22 343.921 163C343.914 184.383 324.795 201.583 337.761 223C339.705 226.211 342.062 229.135 345.015 231.471C348.492 234.222 352.766 236.461 357 237.779C362.236 239.41 368.576 239.474 374 238.816C378.691 238.246 383.104 236.239 387 233.637C399.573 225.242 405.732 208.628 400.896 194C397.638 184.146 391.135 175.702 391.004 165C390.736 143.15 409.393 122.317 396.521 101C394.77 98.1001 392.56 95.5247 389.985 93.3256C386.732 90.5474 382.975 88.387 379 86.8264C374.215 84.9479 368.132 83.7716 363 84.4537M262 85.5178C257.629 86.4517 253.633 88.4858 250 91.044C246.846 93.2652 244.042 95.8551 241.789 99.0008C226.102 120.908 247.298 139.874 247.871 162C248.436 183.792 227.844 202.301 242.108 224C244.234 227.234 246.94 230.105 250.001 232.471C253.568 235.228 257.633 237.04 262 238.1C267.302 239.388 273.629 239.546 279 238.532C283.658 237.654 288.126 235.476 291.996 232.779C295.089 230.624 297.613 228.028 299.84 224.996C306.49 215.944 307.834 203.555 304.135 193C300.888 183.735 295.125 176.144 295.004 166C294.94 160.684 294.636 155.201 295.9 150C297.674 142.695 301.884 136.269 303.841 129C307.664 114.8 303.292 99.6835 291 91.2207C287.382 88.7298 283.26 86.8521 279 85.7608C273.87 84.4467 267.179 84.4111 262 85.5178M304 96C306.66 105.306 312.074 112.876 310.987 123C310.171 130.602 304.968 136.601 304 144C314.257 143.191 323.743 143.191 334 144C332.291 135.139 325.704 128.515 325.456 119C325.222 110.051 330.635 103.209 333 95C323.797 95 312.847 93.3849 304 96z"/>
<path style="fill:#ffeb00; stroke:none;" d="M265.004 103.703C246.085 110.172 257.415 139.518 276 132.437C294.977 125.206 283.676 97.3185 265.004 103.703M361 103.742C341.771 111.093 354.504 140.005 373 132.146C391.763 124.173 378.935 96.8866 361 103.742z"/>
<path style="fill:#1f1e04; stroke:none;" d="M266.015 108.742C254.069 113.449 261.714 132.918 273.999 128.257C287.351 123.191 279.379 103.477 266.015 108.742M362.043 108.742C350.303 113.497 358.558 132.488 369.999 128.254C384.388 122.929 375.458 103.309 362.043 108.742z"/>
<path style="fill:#ffeb00; stroke:none;" d="M266 191.653C257.105 194.446 253.033 206.075 258.009 213.957C261.792 219.948 270.357 222.44 276.999 220.347C284.567 217.963 289.459 207.278 285.821 200C282.091 192.537 273.905 189.17 266 191.653M362.001 191.653C343.536 197.472 354.046 226.156 372 220.761C384.291 217.067 386.953 199.729 375.985 192.742C372.299 190.395 366.094 190.363 362.001 191.653z"/>
<path style="fill:#1f1e04; stroke:none;" d="M268.004 195.746C255.354 200.488 262.164 220.914 274.996 216.103C287.674 211.35 280.684 190.992 268.004 195.746M364.005 195.746C350.962 200.652 358.765 221.264 371.957 215.851C383.875 210.961 376.534 191.034 364.005 195.746M407 210C403.07 228.988 391.372 237.07 374 243C376.869 248.093 381.816 251.11 385.985 255.09C389.681 258.617 392.322 262.773 397 265C398.317 260.324 399.187 255.369 401.378 251C406.512 240.764 416.495 234.577 427 231C423.393 223.124 414.869 213.67 407 210M211 233C215.929 235.182 221.341 236.146 226 238.931C236.658 245.301 240.369 255.841 244 267C248.499 263.687 251.234 259.019 255.09 255.039C258.686 251.329 262.761 248.762 265 244C259.735 241.669 253.995 240.611 249 237.647C239.736 232.15 234.417 222.198 232 212C226.272 213.642 223.792 218.807 219.829 222.91C216.547 226.31 213.046 228.649 211 233M431 235.439C421.606 236.903 413.331 241.234 407.613 249C395.831 264.999 400.464 290.502 418 300.467C434.436 309.807 449.419 299.614 465 295.043C471.909 293.017 480.855 293.508 488 294.093C495.067 294.673 501.416 298.828 508 301.135C514.611 303.451 523.119 303.95 530 302.482C561.822 295.693 564.434 251.887 537 237.543C516.357 226.751 496.508 246.831 476 246.112C460.429 245.566 446.9 232.962 431 235.439M201 239.468C185.699 240.994 174.004 251.667 158 250.961C138.1 250.083 120.066 232.948 100.001 244.98C77.2697 258.611 78.5907 295.423 103 306.482C124.182 316.079 142.185 297.606 163 298.015C178.685 298.324 192.276 310.568 208 308.707C235.368 305.467 249.635 270.495 229.826 250.093C225.788 245.934 220.474 243.139 215 241.36C210.687 239.957 205.536 239.015 201 239.468M311 352C311.357 355.246 310.226 359.72 312.179 362.566C314.372 365.762 323.007 366.349 324.248 361.91C325.147 358.695 320.703 357.635 320.042 354.857C318.732 349.359 322.84 342.1 326 338C326 344.666 325.112 351.924 328.417 358C338.626 376.765 368.99 377.653 383.96 364.671C397.332 353.075 393.029 333.885 378.999 325.13C374.635 322.406 369.966 322.084 365 321.424C355.852 320.208 346.22 321 337 321C336.844 313.462 336.3 302.377 328.957 298.14C322.667 294.51 313.052 295.891 306 295C312.187 285.098 320.216 278.46 316 266C319.785 264.497 323.792 262.902 325.667 258.981C329.337 251.309 320.712 245.839 314 246.059C309.157 246.218 304.89 248.964 304.152 254.001C303.738 256.829 304.905 260.078 303.227 262.625C300.611 266.595 295.526 269.117 292.529 273C288.691 277.974 284.623 285.512 286.515 292C287.357 294.887 289.763 297.067 290.418 300C291.005 302.63 289.65 305.302 290.619 307.907C291.943 311.465 295.89 312.91 299 314.478C305.991 318.001 318.484 326.714 313.293 336C311.103 339.919 307.789 343.369 305.152 347C300.416 353.521 296.587 360.491 289 364.088C276.595 369.969 253.785 365.489 252.109 349C250.573 333.889 268.995 325.036 282 327.468C287.653 328.525 292.442 332.148 297.955 333.304C300.994 333.941 302.839 331.951 301.149 329.086C297.809 323.424 288.032 321.313 282 321.039C267.368 320.375 249.563 323.483 244.789 340C239.975 356.656 253.356 370.046 269 372.56C286.57 375.383 303.209 368.396 311 352z"/>
<path style="fill:#ffeb00; stroke:none;" d="M319 257C318.562 256.141 318.251 254.851 317.39 254.201C312.738 250.688 309.38 257.618 315.859 257.781C316.928 257.808 318.027 257.277 319 257M520 253.547C499.244 257.949 506.359 288.387 526.999 283.697C545.394 279.517 538.1 249.708 520 253.547M434 254.533C413.582 256.172 415.781 286.992 436 285.606C455.913 284.241 453.692 252.953 434 254.533M202 258.537C181.854 263.187 189.615 294.143 210 288.566C228.546 283.493 220.081 254.364 202 258.537z"/>
<path style="fill:#1f1e04; stroke:none;" d="M521.001 258.573C507.336 261.216 510.718 282.709 524.999 279.602C537.673 276.844 533.885 256.082 521.001 258.573z"/>
<path style="fill:#ffeb00; stroke:none;" d="M114 259.537C94.9853 263.925 100.835 294.367 120 290.302C140.122 286.033 133.763 254.976 114 259.537z"/>
<path style="fill:#1f1e04; stroke:none;" d="M429.105 260.742C423.128 263.279 422.503 273.174 426.653 277.566C429.521 280.602 436.209 280.822 439.895 279.258C445.338 276.948 446.642 267.707 443.258 263.228C440.429 259.486 433.203 259.003 429.105 260.742M203.001 263.588C189.949 266.961 194.586 288.393 207.999 284.343C220.753 280.493 216.032 260.22 203.001 263.588M113.015 265.742C100.436 270.698 109.519 289.295 121.957 284.258C134.421 279.21 125.513 260.818 113.015 265.742z"/>
<path style="fill:#ffeb00; stroke:none;" d="M295 293C300.323 290.466 305.409 284.401 307.86 279C308.745 277.052 309.893 272.545 307.397 271.176C304.819 269.762 301.896 273.345 300.518 275.019C296.075 280.416 293.406 286.059 295 293z"/>
<path style="fill:#1f1e04; stroke:none;" d="M497 302L497 333C503.616 330.906 509.159 326.099 516 324.529C527.132 321.975 537.09 327.934 547 332C545.667 321.509 545 311.601 545 301C537.194 304.235 530.873 309.312 522 309.544C512.886 309.782 505.411 304.422 497 302z"/>
<path style="fill:#ffeb00; stroke:none;" d="M299 306C305.174 309.607 310.953 312.675 315.907 318.004C317.986 320.241 320.852 326.554 324.076 327.079C329.185 327.91 328.098 315.725 327.96 313C327.428 302.508 318.563 301.999 310 302C305.318 302 301.455 301.547 299 306z"/>
<path style="fill:#1f1e04; stroke:none;" d="M94 309L95 338C100.862 336.311 105.96 332.433 111.999 331.326C123.808 329.161 132.199 334.89 143 338L142 307C132.306 311.077 124.322 317.561 113 315.674C106.25 314.55 100.678 310.19 94 309z"/>
<path style="fill:#ffeb00; stroke:none;" d="M346 327.439C332.665 329.544 329.324 344.047 336.005 354.999C341.863 364.601 353.343 368.243 364 366.561C378.753 364.233 392.127 347.031 378.895 334.185C370.549 326.083 356.884 325.721 346 327.439z"/>
<path style="fill:#1f1e04; stroke:none;" d="M430 331.439C399.313 336.26 390.147 380.732 418 396.095C440.571 408.545 459.506 388.027 482 389.039C499.33 389.819 512.807 402.218 531 398.331C560.637 391.999 564.953 348.465 539 334.645C530.797 330.277 518.81 329.499 510 332.36C503.49 334.473 497.594 338.348 491 340.211C484.208 342.13 475.005 341.481 468 340.907C454.59 339.806 444.323 329.189 430 331.439M112 336.465C80.1695 342.201 73.736 386.707 102 401.673C123.351 412.979 141.061 393.431 162 393.71C180.257 393.953 195.042 407.671 214 403.319C242.977 396.668 247.534 353.727 222 339.8C199.421 327.485 180.46 347.844 158 346.96C141.914 346.327 128.613 333.47 112 336.465z"/>
<path style="fill:#ffeb00; stroke:none;" d="M521 349.508C501.178 352.284 504.321 383.124 524 380.631C543.582 378.151 540.907 346.72 521 349.508M429.001 351.653C411.394 357.202 420.322 386.251 438 381.358C458.9 375.574 449.537 345.181 429.001 351.653M203 354.569C183.569 358.177 187.483 388.294 207 385.492C227.191 382.592 222.908 350.872 203 354.569z"/>
<path style="fill:#1f1e04; stroke:none;" d="M521 354.576C507.019 356.48 510.853 376.988 524.999 374.851C537.872 372.906 533.632 352.857 521 354.576z"/>
<path style="fill:#ffeb00; stroke:none;" d="M114 355.534C95.0127 360.056 101.169 390.673 120 386.602C140.055 382.266 133.866 350.802 114 355.534z"/>
<path style="fill:#1f1e04; stroke:none;" d="M433 355.573C419.103 358.251 422.45 378.56 435.999 376.62C449.649 374.665 446.331 353.004 433 355.573M204 359.623C189.931 361.987 194.247 383.132 207.996 380.427C220.498 377.967 216.802 357.473 204 359.623M114.015 360.654C101.783 364.525 107.273 384.853 119.999 381.181C133.696 377.23 127.211 356.478 114.015 360.654M394 373C387.182 378.946 377.83 386.786 374 395C383.322 396.261 393.74 401.246 399.363 409.004C403.453 414.648 405.198 421.709 408 428C411.879 424.843 414.563 420.602 418.039 417.004C421.872 413.037 426.599 410.042 429 405C417.36 401.278 407.551 397.819 400.548 387C397.687 382.581 396.687 377.392 394 373M243 375C240.56 385.546 236.315 395.691 227 401.895C222.002 405.224 216.427 406.661 211 409C213.046 413.199 216.684 415.778 220 419.015C224.099 423.015 227.758 427.556 233 430C235.029 420.196 238.679 411.073 247.004 404.927C252.171 401.113 262.976 400.248 265 394C257.5 389.039 250.781 382.643 246 375L243 375M264 401.468C259.357 402.344 254.714 404.475 251 407.39C247.942 409.791 245.091 412.738 242.966 416C228.654 437.976 248.447 455.022 248.985 477C249.292 489.53 242.98 498.403 239.785 510C235.907 524.08 240.492 539.59 252 548.471C255.867 551.455 260.203 553.476 265 554.381C270.174 555.357 275.824 555.318 281 554.384C286.398 553.411 290.846 551.451 295 547.815C305.92 538.257 310.407 523.151 305.907 509C302.64 498.728 296.288 490.135 296.015 479C295.695 465.939 302.21 457.092 305.51 445C308.264 434.91 306.725 423.759 300.895 415C298.769 411.806 296.122 409.025 292.999 406.789C289.41 404.219 285.303 402.587 281 401.669C275.726 400.544 269.305 400.467 264 401.468M359 401.518C354.121 402.56 349.726 404.888 346.004 408.185C343.114 410.745 340.616 413.656 338.681 417C335.34 422.77 332.744 430.237 333.329 437C334.576 451.436 345.013 463.211 345.791 478C346.329 488.239 340.573 497.717 337.24 507C333.487 517.454 333.788 530.681 340.221 539.999C342.639 543.503 345.611 546.396 349.001 548.957C352.953 551.943 357.107 553.772 362 554.56C367.564 555.456 373.509 555.193 379 553.985C383.489 552.997 387.365 551.148 390.996 548.319C394.028 545.958 396.506 543.192 398.637 540C413.12 518.309 393.359 499.729 392.209 478C391.065 456.374 412.191 438.488 397.895 417C395.747 413.772 393.059 411.049 389.999 408.681C386.108 405.668 381.725 403.429 377 402.043C371.585 400.455 364.523 400.338 359 401.518z"/>
<path style="fill:#ffeb00; stroke:none;" d="M269 418.537C256.437 421.436 252.652 438.769 263.043 446.486C266.784 449.264 272.553 449.629 277 448.606C295.706 444.302 286.797 414.431 269 418.537M366 418.572C346.007 422.427 351.35 453.102 372 448.61C391.283 444.415 384.422 415.019 366 418.572z"/>
<path style="fill:#1f1e04; stroke:none;" d="M270.015 423.573C256.68 426.226 260.439 447.071 273.999 444.427C287.719 441.751 283.84 420.823 270.015 423.573M366.001 423.612C352.866 426.794 357.767 447.717 370.999 444.157C384.1 440.631 379.122 420.433 366.001 423.612M306 497C309.061 507.625 315.64 515.231 313.674 527C312.504 534.008 307.579 539.278 306 546C316.461 545.174 326.451 544 337 544C334.035 536.879 328.975 529.897 328.39 522C327.706 512.772 333.307 504.91 337 497C326.932 496.792 315.868 494.083 306 497z"/>
<path style="fill:#ffeb00; stroke:none;" d="M269 506.654C248.927 512.849 258.452 541.897 278 536.057C297.11 530.348 287.282 501.01 269 506.654M366 506.534C346.455 511.189 353.215 541.027 373 536.315C392.574 531.653 385.03 502.001 366 506.534z"/>
<path style="fill:#1f1e04; stroke:none;" d="M270.004 511.576C255.988 515.455 263.372 535.656 276.996 531.347C289.977 527.242 282.089 508.232 270.004 511.576M365.015 511.742C352.429 516.684 361.002 536.467 373.96 531.258C386.473 526.228 377.634 506.787 365.015 511.742M92 546C93.9933 550.186 97.1109 552.565 101 555C99.0231 550.764 96.2359 547.977 92 546M190 613C191.382 615.42 192.363 616.061 195 617C193.618 614.58 192.637 613.939 190 613M432 622C434.943 621.219 436.421 620.605 438 618C435.057 618.781 433.579 619.395 432 622M208 621C213.061 625.895 223.071 628.395 230 629C224.687 624.219 215.048 621.615 208 621M343 639C348.911 641.48 357.759 640.16 364 639.271C378.803 637.161 393.608 634.524 408 630.421C414.183 628.659 423.258 627.708 427 622C399.06 628.464 372.002 637.755 343 639M231 629C236.311 632.342 242.952 633.289 249 634.65C263.095 637.823 277.545 640 292 640C286.664 636.353 277.364 636.784 271 635.869C257.756 633.965 244.387 629.111 231 629z"/>
</svg>