<?xml version="1.0" standalone="no"?>
<!DOCTYPE svg PUBLIC "-//W3C//DTD SVG 20010904//EN"
 "http://www.w3.org/TR/2001/REC-SVG-20010904/DTD/svg10.dtd">
<svg version="1.0" xmlns="http://www.w3.org/2000/svg"
 width="200.000000pt" height="200.000000pt" viewBox="0 0 200.000000 200.000000"
 preserveAspectRatio="xMidYMid meet">

<g transform="translate(0.000000,200.000000) scale(0.100000,-0.100000)"
fill="#000000" stroke="none">
<path d="M769 1701 c-35 -35 -37 -65 -9 -145 l21 -57 -21 -76 c-18 -63 -20
-80 -9 -105 27 -66 117 -83 170 -32 24 23 29 36 29 73 -1 25 -7 57 -15 71 -19
33 -19 89 0 133 38 93 -2 167 -90 167 -38 0 -52 -5 -76 -29z m109 -33 c19 -19
15 -66 -7 -78 -27 -14 -37 -13 -55 6 -32 31 -14 84 29 84 12 0 26 -5 33 -12z
m13 -291 c17 -31 -4 -67 -39 -67 -34 0 -52 16 -52 46 0 48 69 64 91 21z"/>
<path d="M822 1648 c-7 -7 -8 -17 -1 -30 12 -22 32 -23 49 -3 23 28 -21 60
-48 33z"/>
<path d="M827 1384 c-11 -12 -8 -41 6 -53 22 -17 55 12 41 36 -12 19 -36 28
-47 17z"/>
<path d="M1075 1706 c-37 -37 -41 -70 -16 -148 l22 -69 -22 -71 c-22 -71 -22
-72 -3 -108 33 -61 118 -73 168 -24 35 36 39 75 14 140 -21 55 -21 58 -5 123
24 93 22 117 -12 152 -39 39 -109 41 -146 5z m109 -48 c9 -12 16 -26 16 -30 0
-13 -39 -48 -54 -48 -37 0 -61 61 -34 88 19 19 55 14 72 -10z m-4 -268 c11
-11 20 -26 20 -33 0 -53 -77 -64 -95 -13 -8 24 -6 31 14 47 29 24 36 24 61 -1z"/>
<path d="M1124 1645 c-8 -21 2 -45 19 -45 8 0 20 7 27 15 10 12 10 18 0 30 -7
8 -19 15 -27 15 -7 0 -16 -7 -19 -15z"/>
<path d="M1127 1384 c-11 -12 -8 -41 6 -53 22 -17 55 12 41 36 -12 19 -36 28
-47 17z"/>
<path d="M963 1661 c8 -28 8 -50 0 -75 l-11 -36 45 0 c39 0 44 2 37 18 -13 31
-16 89 -5 111 11 20 9 21 -32 21 l-44 0 10 -39z"/>
<path d="M1258 1306 c-10 -20 -31 -40 -54 -51 l-38 -18 35 -28 34 -27 19 32
c10 18 31 41 47 50 24 14 27 20 19 36 -6 11 -19 24 -29 29 -15 8 -21 4 -33
-23z"/>
<path d="M687 1303 l-27 -28 32 -15 c18 -8 42 -32 53 -52 l21 -38 27 28 c15
15 27 30 27 33 0 2 -16 13 -35 23 -19 11 -40 32 -47 47 -7 16 -15 29 -18 29
-3 0 -18 -12 -33 -27z"/>
<path d="M1562 1247 c-57 -19 -67 -20 -110 -7 -26 7 -66 15 -89 18 -37 3 -47
0 -73 -26 -25 -25 -30 -39 -30 -77 0 -38 5 -52 29 -76 33 -33 59 -36 121 -14
53 19 111 19 172 1 86 -27 149 10 151 88 1 47 -19 82 -58 101 -40 18 -36 19
-113 -8z m-172 -57 c23 -23 24 -33 10 -61 -12 -22 -59 -26 -78 -7 -19 19 -14
55 10 72 29 20 34 20 58 -4z m274 4 c19 -18 21 -55 4 -72 -20 -20 -56 -14 -74
13 -15 23 -15 27 0 50 19 29 47 32 70 9z"/>
<path d="M1343 1183 c-7 -2 -13 -16 -13 -29 0 -19 5 -24 25 -24 30 0 43 24 25
45 -13 16 -17 17 -37 8z"/>
<path d="M1611 1177 c-17 -21 -3 -49 23 -45 15 2 21 10 21 28 0 28 -26 38 -44
17z"/>
<path d="M322 1235 c-45 -20 -68 -75 -53 -127 21 -68 74 -84 178 -51 47 15 60
15 101 3 26 -7 66 -15 89 -18 37 -3 47 0 73 26 24 24 30 39 30 72 0 52 -13 76
-50 95 -38 20 -59 19 -129 -5 -61 -20 -68 -20 -191 15 -8 2 -30 -2 -48 -10z
m76 -57 c15 -15 15 -61 0 -76 -18 -18 -56 -14 -68 7 -22 42 -5 81 35 81 12 0
26 -5 33 -12z m282 -7 c16 -31 12 -49 -14 -66 -44 -29 -91 18 -66 65 14 27 65
27 80 1z"/>
<path d="M344 1155 c-8 -21 2 -45 19 -45 8 0 20 7 27 15 10 12 10 18 0 30 -7
8 -19 15 -27 15 -7 0 -16 -7 -19 -15z"/>
<path d="M627 1169 c-20 -12 -22 -32 -3 -48 18 -15 46 -4 46 19 0 26 -22 40
-43 29z"/>
<path d="M962 1218 c-7 -7 -12 -20 -12 -30 0 -9 -9 -22 -19 -28 -26 -13 -34
-42 -26 -90 5 -30 14 -43 41 -59 48 -28 45 -59 -9 -116 -25 -26 -53 -45 -65
-45 -82 0 -113 90 -41 120 23 10 39 10 67 2 38 -12 56 -7 32 8 -8 6 -38 10
-66 10 -59 0 -89 -19 -100 -62 -5 -22 0 -33 24 -58 41 -40 106 -42 150 -5 24
20 31 22 36 10 3 -8 12 -15 21 -15 11 0 14 6 9 24 -3 14 -1 33 5 43 9 16 10
15 11 -7 0 -58 67 -98 132 -80 45 13 68 38 68 75 0 47 -33 72 -106 80 -57 7
-61 9 -70 38 -7 25 -16 33 -46 40 -38 9 -38 9 -23 37 8 16 15 35 15 41 0 7 7
21 16 31 28 30 -15 65 -44 36z m8 -77 c0 -16 -38 -56 -46 -49 -11 12 13 58 31
58 8 0 15 -4 15 -9z m44 -97 c18 -17 21 -50 6 -59 -9 -6 -80 55 -80 69 0 13
59 5 74 -10z m149 -75 c46 -25 50 -67 10 -99 -69 -54 -177 34 -117 94 18 19
76 21 107 5z"/>
<path d="M1560 1010 c0 -36 2 -41 18 -35 36 16 63 17 92 5 17 -7 32 -11 34 -9
2 2 1 21 -2 42 -4 33 -7 37 -26 30 -27 -10 -76 -9 -98 1 -16 7 -18 3 -18 -34z"/>
<path d="M300 990 c0 -37 2 -41 18 -34 22 10 71 11 100 1 20 -8 22 -6 22 33 0
39 -2 41 -22 33 -29 -10 -78 -9 -100 1 -16 7 -18 3 -18 -34z"/>
<path d="M1290 932 c-56 -56 -33 -161 40 -177 17 -4 58 2 103 14 68 20 77 20
123 6 99 -30 153 -15 174 50 15 44 -1 99 -36 121 -26 18 -90 15 -161 -7 -36
-11 -50 -11 -85 0 -24 7 -62 15 -85 18 -37 4 -46 1 -73 -25z m100 -42 c23 -23
25 -40 8 -62 -20 -24 -44 -28 -67 -12 -27 20 -27 59 1 78 29 20 34 20 58 -4z
m284 -2 c17 -27 -4 -72 -36 -76 -46 -5 -67 45 -35 86 14 17 57 11 71 -10z"/>
<path d="M1343 883 c-18 -6 -16 -50 1 -56 8 -3 22 1 33 8 28 21 -1 62 -34 48z"/>
<path d="M1606 874 c-9 -22 17 -49 39 -40 10 3 15 15 13 28 -4 29 -42 37 -52
12z"/>
<path d="M313 930 c-56 -34 -64 -117 -15 -166 22 -22 33 -25 72 -22 25 3 66
11 92 18 41 12 55 12 95 0 94 -26 119 -25 153 8 57 58 32 164 -43 177 -19 3
-60 -2 -100 -14 -68 -20 -69 -20 -130 -1 -77 24 -85 24 -124 0z m85 -52 c15
-15 15 -61 0 -76 -18 -18 -56 -14 -68 7 -22 42 -5 81 35 81 12 0 26 -5 33 -12z
m280 0 c35 -35 -14 -102 -57 -79 -45 25 -33 91 17 91 16 0 33 -5 40 -12z"/>
<path d="M344 855 c-8 -21 2 -45 19 -45 21 0 38 25 31 44 -8 20 -43 21 -50 1z"/>
<path d="M614 855 c-4 -9 0 -23 9 -32 21 -21 49 -9 45 19 -4 28 -45 38 -54 13z"/>
<path d="M755 808 c-9 -29 -54 -78 -72 -78 -23 0 -14 -28 15 -49 l28 -20 11
29 c6 16 27 39 47 51 20 11 36 22 36 24 0 2 -13 17 -29 34 -29 31 -30 31 -36
9z"/>
<path d="M1202 807 c-29 -30 -28 -43 3 -51 22 -6 57 -47 68 -81 3 -9 56 43 57
56 0 3 -16 13 -35 22 -19 9 -41 30 -50 47 -8 16 -17 30 -19 30 -1 0 -12 -10
-24 -23z"/>
<path d="M813 739 c-64 -18 -76 -75 -43 -191 12 -42 12 -53 -3 -95 -26 -73
-23 -119 12 -154 23 -23 38 -29 71 -29 52 0 76 13 95 50 20 39 19 65 -6 129
l-20 54 21 69 c18 58 19 75 10 104 -18 54 -75 80 -137 63z m77 -68 c16 -31 12
-49 -14 -66 -44 -29 -91 18 -66 65 14 27 65 27 80 1z m-2 -263 c19 -19 15 -66
-7 -78 -31 -16 -49 -12 -67 15 -15 23 -15 27 0 50 18 27 54 33 74 13z"/>
<path d="M837 669 c-20 -12 -22 -32 -3 -48 18 -15 46 -4 46 19 0 26 -22 40
-43 29z"/>
<path d="M824 385 c-4 -9 0 -23 9 -32 21 -21 49 -9 45 19 -4 28 -45 38 -54 13z"/>
<path d="M1104 736 c-19 -8 -38 -28 -49 -52 -18 -38 -18 -40 3 -99 26 -71 27
-100 7 -148 -38 -93 2 -167 90 -167 38 0 52 5 76 29 35 35 36 62 9 150 l-21
65 22 68 c18 58 19 74 9 98 -22 53 -91 80 -146 56z m84 -58 c7 -7 12 -21 12
-33 0 -29 -19 -45 -52 -45 -36 0 -56 36 -39 69 13 23 59 29 79 9z m0 -270 c7
-7 12 -25 12 -40 0 -34 -41 -59 -68 -41 -21 12 -28 59 -11 79 14 17 51 18 67
2z"/>
<path d="M1137 669 c-20 -12 -22 -32 -3 -48 18 -15 46 -4 46 19 0 26 -22 40
-43 29z"/>
<path d="M1126 384 c-7 -18 10 -44 28 -44 23 0 36 22 25 42 -12 22 -45 24 -53
2z"/>
<path d="M965 433 c14 -36 17 -91 6 -112 -11 -20 -10 -21 32 -21 l45 0 -13 38
c-11 31 -11 43 1 71 8 18 14 35 14 37 0 2 -21 4 -46 4 -40 0 -45 -2 -39 -17z"/>
<path d="M1268 33 c7 -3 16 -2 19 1 4 3 -2 6 -13 5 -11 0 -14 -3 -6 -6z"/>
<path d="M758 23 c7 -3 16 -2 19 1 4 3 -2 6 -13 5 -11 0 -14 -3 -6 -6z"/>
<path d="M1228 23 c7 -3 16 -2 19 1 4 3 -2 6 -13 5 -11 0 -14 -3 -6 -6z"/>
<path d="M808 13 c7 -3 16 -2 19 1 4 3 -2 6 -13 5 -11 0 -14 -3 -6 -6z"/>
<path d="M1178 13 c7 -3 16 -2 19 1 4 3 -2 6 -13 5 -11 0 -14 -3 -6 -6z"/>
<path d="M868 3 c6 -2 18 -2 25 0 6 3 1 5 -13 5 -14 0 -19 -2 -12 -5z"/>
<path d="M1118 3 c7 -3 16 -2 19 1 4 3 -2 6 -13 5 -11 0 -14 -3 -6 -6z"/>
</g>
</svg>
